<?xml version="1.0" encoding="UTF-8"?>
<!DOCTYPE svg PUBLIC "-//W3C//DTD SVG 1.1//EN" "http://www.w3.org/Graphics/SVG/1.1/DTD/svg11.dtd">
<svg xmlns="http://www.w3.org/2000/svg" version="1.1" width="200px" height="200px" style="shape-rendering:geometricPrecision; text-rendering:geometricPrecision; image-rendering:optimizeQuality; fill-rule:evenodd; clip-rule:evenodd" xmlns:xlink="http://www.w3.org/1999/xlink">
<g><path style="opacity:1" fill="#12a28e" d="M 96.5,1.5 C 98.5273,1.33788 100.527,1.50454 102.5,2C 114,13.5 125.5,25 137,36.5C 137.667,38.1667 137.667,39.8333 137,41.5C 126.791,51.3749 116.957,61.5415 107.5,72C 113.622,79.124 120.122,85.9573 127,92.5C 136.833,82.6667 146.667,72.8333 156.5,63C 158.365,61.6986 160.365,61.3653 162.5,62C 174,73.5 185.5,85 197,96.5C 197.667,98.8333 197.667,101.167 197,103.5C 186.167,114.333 175.333,125.167 164.5,136C 162.305,137.373 159.971,137.706 157.5,137C 147.833,127.333 138.167,117.667 128.5,108C 127.5,107.333 126.5,107.333 125.5,108C 119.122,114.043 113.122,120.376 107.5,127C 116.957,137.458 126.791,147.625 137,157.5C 137.667,159.5 137.667,161.5 137,163.5C 125.833,174.667 114.667,185.833 103.5,197C 101.167,197.667 98.8333,197.667 96.5,197C 84.2574,185.26 72.5908,173.093 61.5,160.5C 61.7189,159.062 62.2189,157.729 63,156.5C 72.8333,146.667 82.6667,136.833 92.5,127C 88,122.5 83.5,118 79,113.5C 78.5339,109.436 80.3672,106.769 84.5,105.5C 89.5,110.167 94.5,114.833 99.5,119.5C 106.5,113.167 113.167,106.5 119.5,99.5C 113.143,91.964 106.143,85.464 98.5,80C 90.2584,88.7453 81.5917,96.912 72.5,104.5C 71.062,104.281 69.7287,103.781 68.5,103C 59.1667,93.6667 49.8333,84.3333 40.5,75C 39.5,74.3333 38.5,74.3333 37.5,75C 30,82.5 22.5,90 15,97.5C 14.3333,99.1667 14.3333,100.833 15,102.5C 22.4453,110.62 30.4453,117.953 39,124.5C 39.8333,124.333 40.6667,124.167 41.5,124C 47.6811,117.652 54.0145,111.485 60.5,105.5C 62.8333,107.167 64.8333,109.167 66.5,111.5C 58.0695,121.101 48.9028,129.768 39,137.5C 38.1667,137.333 37.3333,137.167 36.5,137C 25,125.5 13.5,114 2,102.5C 1.33333,100.5 1.33333,98.5 2,96.5C 13.1667,85.3333 24.3333,74.1667 35.5,63C 37.8333,61 40.1667,61 42.5,63C 52.0416,72.8762 61.8749,82.3762 72,91.5C 79.2517,86.2534 85.9184,80.2534 92,73.5C 92.6667,72.8333 92.6667,72.1667 92,71.5C 82,61.5 72,51.5 62,41.5C 61.3333,39.8333 61.3333,38.1667 62,36.5C 73.702,24.9651 85.202,13.2985 96.5,1.5 Z M 97.5,14.5 C 99.1992,14.3398 100.866,14.5065 102.5,15C 110.62,22.4453 117.953,30.4453 124.5,39C 117.406,48.4292 109.239,56.9292 100,64.5C 90.8333,56.6667 82.3333,48.1667 74.5,39C 81.9925,30.6741 89.6591,22.5074 97.5,14.5 Z M 158.5,74.5 C 160.308,74.4914 161.975,74.9914 163.5,76C 171.583,83.4122 178.917,91.4122 185.5,100C 177.966,109.034 169.633,117.201 160.5,124.5C 151.228,116.897 142.561,108.563 134.5,99.5C 142.521,91.1461 150.521,82.8128 158.5,74.5 Z M 98.5,134.5 C 107.412,141.907 115.912,149.907 124,158.5C 124.667,159.833 124.667,161.167 124,162.5C 116.291,170.544 108.291,178.21 100,185.5C 91.4122,178.917 83.4122,171.583 76,163.5C 75.3623,162.391 74.8623,161.225 74.5,160C 82.3259,151.341 90.3259,142.841 98.5,134.5 Z"/></g>
<g><path style="opacity:1" fill="#12a28e" d="M 52.5,45.5 C 53.8734,45.3433 55.2068,45.51 56.5,46C 64.6667,54.1667 72.8333,62.3333 81,70.5C 80.3736,75.654 77.5403,79.3207 72.5,81.5C 63.2136,73.7155 54.3803,65.3822 46,56.5C 45.3333,55.1667 45.3333,53.8333 46,52.5C 48.3722,50.2968 50.5389,47.9635 52.5,45.5 Z"/></g>
<g><path style="opacity:1" fill="#12a28e" d="M 143.5,45.5 C 147.302,46.7786 150.469,49.1119 153,52.5C 153.651,54.235 153.485,55.9017 152.5,57.5C 144.348,65.1521 136.348,72.9855 128.5,81C 127.5,81.6667 126.5,81.6667 125.5,81C 123.333,78.8333 121.167,76.6667 119,74.5C 118.333,72.8333 118.333,71.1667 119,69.5C 127.062,61.2703 135.228,53.2703 143.5,45.5 Z"/></g>
<g><path style="opacity:1" fill="#12a28e" d="M 97.5,86.5 C 98.8734,86.3433 100.207,86.51 101.5,87C 105.881,91.0448 109.881,95.3781 113.5,100C 109.667,105.167 105.167,109.667 100,113.5C 94.6966,109.364 89.8632,104.697 85.5,99.5C 89.5219,95.1465 93.5219,90.8131 97.5,86.5 Z"/></g>
<g><path style="opacity:1" fill="#12a28e" d="M 69.5,118.5 C 71.1992,118.34 72.8659,118.506 74.5,119C 76.6667,121.167 78.8333,123.333 81,125.5C 81.6667,126.5 81.6667,127.5 81,128.5C 72.8604,136.64 64.6937,144.806 56.5,153C 55.1667,153.667 53.8333,153.667 52.5,153C 50.3333,150.833 48.1667,148.667 46,146.5C 45.3333,145.167 45.3333,143.833 46,142.5C 54.0358,134.632 61.8691,126.632 69.5,118.5 Z"/></g>
<g><path style="opacity:1" fill="#12a28e" d="M 124.5,118.5 C 126.199,118.34 127.866,118.506 129.5,119C 137.333,126.833 145.167,134.667 153,142.5C 153.559,146.553 152.059,149.72 148.5,152C 146.635,153.301 144.635,153.635 142.5,153C 134.667,145.167 126.833,137.333 119,129.5C 118.333,127.833 118.333,126.167 119,124.5C 121.04,122.63 122.873,120.63 124.5,118.5 Z"/></g>
</svg>
